<svg id="Layer_1" data-name="Layer 1" xmlns="http://www.w3.org/2000/svg" width="100" height="52.94" viewBox="0 0 100 52.94"><defs><style>.cls-1{fill:#fff;}</style></defs><title>logo-white</title><path class="cls-1" d="M22.7,28.78a10.47,10.47,0,0,1-.63.92,5,5,0,0,1-.71.74,2.91,2.91,0,0,1-2.48.95,3.12,3.12,0,0,1-2.17-1.66l-2.23-3.95C13.75,24.5,13,23.25,12.12,22a14.43,14.43,0,0,0-.29,2.45q0,1.19,0,2.46c.09,2.42.17,4.78.26,7.08s.15,4.59.19,6.88a14.77,14.77,0,0,1-.19,3.64c-.09.55-.18,1.06-.29,1.53a4.71,4.71,0,0,1-.54,1.34A4.34,4.34,0,0,1,8.1,50a4.73,4.73,0,0,1-3.95-1.08,7.32,7.32,0,0,1-1.41-1.59,14.58,14.58,0,0,1-1-1.92A22.45,22.45,0,0,1,.51,40.51,48.61,48.61,0,0,1,.13,35.6Q0,29,0,22.59T.06,9.65A12.66,12.66,0,0,1,.22,7c.15-.9.33-1.77.55-2.62A5.62,5.62,0,0,1,2.71,1.23,5.16,5.16,0,0,1,5.8,0a4.25,4.25,0,0,1,3,.79,8.64,8.64,0,0,1,2.08,2.46q2.41,4.2,4.43,8.58t3.73,9a1.16,1.16,0,0,0,.13.22c0,.06.1.18.19.35l.48-.48c.14-.15.28-.31.41-.48.94-1.23,1.91-2.64,2.93-4.24s2.07-3.2,3.13-4.81,2.12-3.16,3.19-4.63A31.28,31.28,0,0,1,32.65,3a5.5,5.5,0,0,1,3.06-1.56,5.26,5.26,0,0,1,3.06.45,6.14,6.14,0,0,1,2.4,2,5.93,5.93,0,0,1,1.11,3.15V8.4a7.78,7.78,0,0,1-.12,1.31q-.9,6.31-1.85,13t-1.79,13c-.26,1.62-.5,3.2-.73,4.75a17.26,17.26,0,0,0,0,4.82,4.58,4.58,0,0,1-.66,3.06A3.6,3.6,0,0,1,34.76,50a3.26,3.26,0,0,1-3.41-.73A8.81,8.81,0,0,1,29.3,45.9a20,20,0,0,1-1-4.37C28.15,40,28,38.73,28,37.71q-.13-3.65,0-7.59t.29-7.53a7.12,7.12,0,0,0,.06-.95,9,9,0,0,1,.06-1,21.27,21.27,0,0,0-3,3.93Q24,26.81,22.7,28.78Z"/><path class="cls-1" d="M45.53,45a43,43,0,0,1-.89-4.66c-.21-1.66-.36-3.32-.44-5a27.56,27.56,0,0,1,.19-5c.08-.43.18-.86.28-1.31s.23-.9.35-1.37a4.18,4.18,0,0,1,4.15-3.06,3.89,3.89,0,0,1,2.39.89A4.37,4.37,0,0,1,52.93,28a31.56,31.56,0,0,1,.64,3.79c.17,1.47.28,3,.32,4.53a44.39,44.39,0,0,1-.1,4.5,21.19,21.19,0,0,1-.54,3.7,6.25,6.25,0,0,1-1.56,2.93,3.45,3.45,0,0,1-2.23,1.08,3.29,3.29,0,0,1-2.27-.79A5.5,5.5,0,0,1,45.53,45Zm3.39-24.75A3.91,3.91,0,0,1,46,19a4.15,4.15,0,0,1-1.18-3A4.19,4.19,0,0,1,46,12.93a4.12,4.12,0,0,1,3-1.24A4.27,4.27,0,0,1,52,13a4.39,4.39,0,0,1,1.31,3A4.11,4.11,0,0,1,52,19,4,4,0,0,1,48.92,20.23Z"/><path class="cls-1" d="M70.47,27.31q1.27-.82,2.52-1.59c.83-.51,1.67-1,2.52-1.6.47-.29.94-.6,1.43-.92a9.07,9.07,0,0,1,1.5-.8,5.3,5.3,0,0,1,3.22-.48,4.33,4.33,0,0,1,2.59,1.5,4.5,4.5,0,0,1,1,2.74,5,5,0,0,1-1,3,20.5,20.5,0,0,1-1.53,1.95c-.56.61-1.13,1.22-1.73,1.81a9,9,0,0,1-.92.93c-.32.27-.69.58-1.12.92.6.34,1.15.64,1.66.9s1,.53,1.47.82c.64.35,1.26.67,1.88,1a15.4,15.4,0,0,1,1.82,1.12,3.58,3.58,0,0,1,1.37,1.88,3.07,3.07,0,0,1-.1,2,3.8,3.8,0,0,1-1.53,1.69,3,3,0,0,1-2.29.29c-1.62-.39-3.23-.8-4.82-1.25s-3.2-.88-4.81-1.3L72,41.4c-.55-.16-1.15-.36-1.78-.57,0,1.23.09,2.38.15,3.44a15.34,15.34,0,0,0,.55,3.19,8.83,8.83,0,0,1,.25,1.37A3.86,3.86,0,0,1,71,50.21a3,3,0,0,1-.82,1.59,4,4,0,0,1-1.5.93,4.43,4.43,0,0,1-1.82.19,3.88,3.88,0,0,1-1.79-.67,7.48,7.48,0,0,1-1.85-1.69,8.4,8.4,0,0,1-1.21-2.2,85.45,85.45,0,0,1-2.29-10,92,92,0,0,1-1.12-9.88q-.28-4.89-.13-9.7c.11-3.21.29-6.38.54-9.53a10.88,10.88,0,0,1,1.79-4.85,6.76,6.76,0,0,1,2.33-1.91,4.34,4.34,0,0,1,3-.26,4.84,4.84,0,0,1,2.78,1.47,6,6,0,0,1,1.27,2.52,12.45,12.45,0,0,1,.35,3q0,1.59-.06,3c-.13,2.46-.24,5-.35,7.68A39.58,39.58,0,0,0,70.47,27.31Z"/><path class="cls-1" d="M100,45a4.15,4.15,0,0,1-1.34,3.12,4.47,4.47,0,0,1-3.19,1.28A3.59,3.59,0,0,1,93.81,49a5.12,5.12,0,0,1-1.37-1,4.35,4.35,0,0,1-.93-1.44,5,5,0,0,1-.31-1.78,4.59,4.59,0,0,1,1.37-3,4.27,4.27,0,0,1,3.15-1.25,4.11,4.11,0,0,1,3.1,1.31A4.19,4.19,0,0,1,100,45Z"/></svg>